<svg xmlns="http://www.w3.org/2000/svg" xmlns:xlink="http://www.w3.org/1999/xlink" width="140.550048828125" height="123.1229248046875" viewBox="0 0 140.550048828125 123.1229248046875" fill="none"><g opacity="1"  transform="translate(4 2.0029296875)  rotate(0)"><g id="undefined" filter="url(#filter_0)"></g><path id="路径" fill-rule="evenodd" fill="url(#linear_0)" opacity="1" d="M122.64 12.09L122.64 105.09L106.18 105.09L106.18 36.79C106.18 34.03 103.94 31.78 101.18 31.78C98.42 31.78 96.18 34.03 96.18 36.79L96.18 110.12C96.18 112.88 98.42 115.12 101.18 115.12L127.55 115.12C130.31 115.12 132.55 112.88 132.55 110.12L132.55 4.97C132.54 3.38 131.78 1.89 130.49 0.94C129.19 0.01 127.53 -0.25 126.01 0.24C102.47 8.2 82.64 23.02 68.76 42.79C54.68 62.4 47.1 85.93 47.08 110.09C47.08 112.85 49.32 115.08 52.08 115.08C54.84 115.08 57.08 112.85 57.08 110.09C57.08 67.37 83.75 27.96 122.64 12.09Z"></path><path id="路径" fill-rule="evenodd" fill="url(#linear_1)" opacity="1" d="M0 4.97708L0 110.117C0 112.887 2.24 115.117 5 115.117L31.34 115.117C34.1 115.117 36.34 112.887 36.34 110.117L36.34 36.6371C36.34 33.8771 34.1 31.6371 31.34 31.6371C28.58 31.6371 26.34 33.8771 26.34 36.6371L26.34 105.137L9.95 105.137L9.95 12.1371C48.09 27.6571 73.67 63.9971 75.4 105.137L52.06 105.137C50.17 104.937 48.33 105.847 47.32 107.477C46.31 109.087 46.31 111.137 47.32 112.757C48.33 114.367 50.17 115.277 52.06 115.087L80.49 115.087C83.25 115.087 85.49 112.847 85.49 110.087C85.44 59.9171 53.74 15.7871 6.53 0.24708C5.01 -0.23292 3.36 0.0170801 2.07 0.96708C0.78 1.89708 0.01 3.37708 0 4.97708Z"></path></g><defs><filter id="filter_0" x="831" y="1386" width="140.550048828125" height="127.11701599580601" filterUnits="userSpaceOnUse" color-interpolation-filters="sRGB"><feFlood flood-opacity="0" result="feFloodId"/>
          <feColorMatrix in="SourceAlpha" type="matrix" values="0 0 0 0 0 0 0 0 0 0 0 0 0 0 0 0 0 0 127 0" result="hardAlpha"/>
          
          <feOffset dx="0" dy="2"/>
          <feComposite in2="hardAlpha" operator="out"/>
          <feGaussianBlur stdDeviation="2"/>
          <feColorMatrix type="matrix" values="0 0 0 0 0 0 0 0 0 0 0 0 0 0 0 0 0 0 0.25 0"/>
          <feBlend mode="normal" in2="filter_feFlood" result="filter_feFlood_1"/>
          <feBlend mode="normal" in="SourceGraphic" in2="filter_0" result="shape"/></filter><linearGradient id="linear_0" x1="-31.835731835732044%" y1="-10.782927177895392%" x2="97.67169767169766%" y2="85.37140677741894%" gradientUnits="objectBoundingBox"><stop offset="0" stop-color="#D4FF7A" stop-opacity="1" /><stop offset="1" stop-color="#E25F9D" stop-opacity="1" /></linearGradient><linearGradient id="linear_1" x1="-21.522985144461416%" y1="22.456719246559206%" x2="107.95414668382249%" y2="118.61698976637052%" gradientUnits="objectBoundingBox"><stop offset="0" stop-color="#D4FF7A" stop-opacity="1" /><stop offset="1" stop-color="#E25F9D" stop-opacity="1" /></linearGradient></defs></svg>