<svg xmlns="http://www.w3.org/2000/svg" xmlns:xlink="http://www.w3.org/1999/xlink" width="130.8699951171875" height="123.11962890625" viewBox="0 0 130.8699951171875 123.11962890625" fill="none"><g id="拼合图形" filter="url(#filter_0)"><path id="拼合图形" fill-rule="evenodd" fill="url(#linear_0)" opacity="1" d="M100.5,59.9996v47.0904h16.46v-93.0004c-25.64,10.47 -45.97,31.17 -56.85,56.3c6.99,12.8 10.87,27.4 10.89,42.7204c0,2.14 -1.76,3.86 -3.92,3.86l-20.76,0.03c-1.38,0 -2.55,-0.47 -3.46,-1.38c-0.9,-0.9 -1.46,-2.15 -1.46,-3.53c0.02,-15.0204 2.95,-29.7904 8.55,-43.5404c-9,-13.73 -22.16,-24.75 -38.15,-31.17v71.9004h12.84v-31.7804c0,-2.14 1.76,-3.87 3.92,-3.87c2.17,0 3.92,1.73 3.92,3.87v35.6404c0,2.13 -1.75,3.86 -3.92,3.86h-20.64c-2.16,0 -3.92,-1.73 -3.92,-3.86v-81.3004c0.01,-1.23 0.61,-2.38 1.62,-3.1c1.01,-0.73 2.31,-0.93 3.5,-0.55c18.37,5.97 33.75,17.39 44.58,32.12c2.7,-5.39 5.84,-10.58 9.38,-15.52c13.88,-19.76 33.71,-34.59 57.25,-42.53997c1.52,-0.5 3.18,-0.24 4.48,0.7c1.29,0.94 2.05,2.44 2.06,4.03v105.14037c0,2.77 -2.24,5 -5,5h-26.37c-2.76,0 -5,-2.23 -5,-5v-52.1204c0,-2.76 2.24,-5.01 5,-5.01c2.76,0 5,2.25 5,5.01zM90,43.9996c0,-2.76 2.24,-5 5,-5c2.76,0 5,2.24 5,5c0,2.76 -2.24,5 -5,5c-2.76,0 -5,-2.24 -5,-5zM51.44,109.28h11.65c-0.43,-10.1404 -2.77,-19.9104 -6.72,-28.9004c-2.95,9.26 -4.66,18.98 -4.93,28.9004z"></path></g><defs><linearGradient id="linear_0" x1="-33.90848421601408%" y1="-11.529819897706894%" x2="104.03088064508765%" y2="91.30415055825105%" gradientUnits="objectBoundingBox"><stop offset="0" stop-color="#D4FF7A" stop-opacity="1" /><stop offset="1" stop-color="#FF3392" stop-opacity="1" /></linearGradient><filter id="filter_0" x="0" y="-4.0003662109375" width="130.87" height="127.11963468041299" filterUnits="userSpaceOnUse" color-interpolation-filters="sRGB"><feFlood flood-opacity="0" result="feFloodId"/>
          <feColorMatrix in="SourceAlpha" type="matrix" values="0 0 0 0 0 0 0 0 0 0 0 0 0 0 0 0 0 0 127 0" result="hardAlpha"/>
          
          <feOffset dx="0" dy="2"/>
          <feComposite in2="hardAlpha" operator="out"/>
          <feGaussianBlur stdDeviation="2"/>
          <feColorMatrix type="matrix" values="0 0 0 0 0 0 0 0 0 0 0 0 0 0 0 0 0 0 0.25 0"/>
          <feBlend mode="normal" in2="filter_feFlood" result="filter_feFlood_1"/>
          <feBlend mode="normal" in="SourceGraphic" in2="filter_0" result="shape"/></filter></defs></svg>